<svg width="40" height="40" viewBox="0 0 40 40" fill="none" xmlns="http://www.w3.org/2000/svg">
<path d="M26.25 17.5V10C26.25 8.3424 25.5915 6.75268 24.4194 5.58058C23.2473 4.40848 21.6576 3.75 20 3.75C18.3424 3.75 16.7527 4.40848 15.5806 5.58058C14.4085 6.75268 13.75 8.3424 13.75 10V17.5M32.6766 14.1783L34.7816 34.1783C34.8983 35.2867 34.0316 36.25 32.9166 36.25H7.08331C6.82032 36.2503 6.56022 36.1952 6.31989 36.0884C6.07956 35.9816 5.86439 35.8255 5.68835 35.6301C5.5123 35.4347 5.37933 35.2045 5.29807 34.9544C5.2168 34.7043 5.18906 34.4399 5.21664 34.1783L7.32331 14.1783C7.3719 13.7176 7.58935 13.2912 7.93373 12.9813C8.2781 12.6714 8.72502 12.4999 9.18831 12.5H30.8116C31.7716 12.5 32.5766 13.225 32.6766 14.1783ZM14.375 17.5C14.375 17.6658 14.3091 17.8247 14.1919 17.9419C14.0747 18.0592 13.9157 18.125 13.75 18.125C13.5842 18.125 13.4252 18.0592 13.308 17.9419C13.1908 17.8247 13.125 17.6658 13.125 17.5C13.125 17.3342 13.1908 17.1753 13.308 17.0581C13.4252 16.9408 13.5842 16.875 13.75 16.875C13.9157 16.875 14.0747 16.9408 14.1919 17.0581C14.3091 17.1753 14.375 17.3342 14.375 17.5ZM26.875 17.5C26.875 17.6658 26.8091 17.8247 26.6919 17.9419C26.5747 18.0592 26.4157 18.125 26.25 18.125C26.0842 18.125 25.9252 18.0592 25.808 17.9419C25.6908 17.8247 25.625 17.6658 25.625 17.5C25.625 17.3342 25.6908 17.1753 25.808 17.0581C25.9252 16.9408 26.0842 16.875 26.25 16.875C26.4157 16.875 26.5747 16.9408 26.6919 17.0581C26.8091 17.1753 26.875 17.3342 26.875 17.5Z" stroke="black" stroke-width="1.5" stroke-linecap="round" stroke-linejoin="round"/>
</svg>
