<svg width="41" height="41" viewBox="0 0 41 41" fill="none" xmlns="http://www.w3.org/2000/svg">
<path d="M29.8958 11.1042H29.9129M11.9583 3.41675H29.0416C33.7591 3.41675 37.5833 7.24098 37.5833 11.9584V29.0417C37.5833 33.7592 33.7591 37.5834 29.0416 37.5834H11.9583C7.24086 37.5834 3.41663 33.7592 3.41663 29.0417V11.9584C3.41663 7.24098 7.24086 3.41675 11.9583 3.41675ZM27.3333 19.4238C27.5441 20.8456 27.3013 22.2976 26.6393 23.5734C25.9773 24.8492 24.9299 25.8837 23.6461 26.5299C22.3622 27.1761 20.9073 27.4011 19.4883 27.1727C18.0692 26.9444 16.7583 26.2744 15.742 25.2581C14.7257 24.2417 14.0557 22.9308 13.8273 21.5118C13.599 20.0927 13.8239 18.6378 14.4701 17.354C15.1163 16.0701 16.1509 15.0227 17.4266 14.3607C18.7024 13.6988 20.1545 13.4559 21.5762 13.6667C23.0265 13.8818 24.3691 14.5576 25.4058 15.5943C26.4425 16.631 27.1182 17.9736 27.3333 19.4238Z" stroke="white" stroke-width="4" stroke-linecap="round" stroke-linejoin="round"/>
</svg>
