<svg width="41" height="41" viewBox="0 0 41 41" fill="none" xmlns="http://www.w3.org/2000/svg">
<g clip-path="url(#clip0_13_74)">
<path d="M39.2917 5.12509C37.6558 6.27903 35.8445 7.16161 33.9275 7.73884C32.8987 6.55584 31.5313 5.71735 30.0104 5.3368C28.4895 4.95624 26.8883 5.05196 25.4236 5.61103C23.9588 6.1701 22.7011 7.16552 21.8206 8.46269C20.94 9.75985 20.479 11.2962 20.5 12.8638V14.5722C17.4979 14.65 14.5231 13.9842 11.8405 12.634C9.15798 11.2838 6.851 9.29109 5.12504 6.83342C5.12504 6.83342 -1.70829 22.2084 13.6667 29.0418C10.1484 31.4299 5.95727 32.6274 1.70837 32.4584C17.0834 41.0001 35.875 32.4584 35.875 12.8126C35.8735 12.3367 35.8277 11.8621 35.7384 11.3947C37.4819 9.67522 38.7123 7.50431 39.2917 5.12509Z" stroke="white" stroke-width="4" stroke-linecap="round" stroke-linejoin="round"/>
</g>
<defs>
<clipPath id="clip0_13_74">
<rect width="41" height="41" fill="white"/>
</clipPath>
</defs>
</svg>
